<svg width="38" height="38" viewBox="0 0 38 38" fill="none" xmlns="http://www.w3.org/2000/svg">
<path d="M8.36305 33.4968L26.614 25.0347L13.573 11.9937L5.11088 30.2365C4.98953 30.5278 4.5284 31.7008 5.78235 32.8172C7.14146 34.0226 8.07181 33.6182 8.36305 33.4968Z" fill="url(#paint0_linear_137_4738)"/>
<path d="M11.744 15.9336L10.3849 18.8864C9.94804 19.9462 17.6982 27.7692 22.0749 27.1382L26.6134 25.0348C21.2336 27.5184 11.0806 17.3736 11.744 15.9336Z" fill="url(#paint1_linear_137_4738)"/>
<path d="M8.99277 21.8877L8.67726 22.5592L7.60939 24.8567C7.6013 25.7628 12.2692 30.4226 15.1897 30.3255L18.8949 28.6105C14.8823 29.3062 8.53164 22.8666 8.99277 21.8877Z" fill="url(#paint2_linear_137_4738)"/>
<path d="M5.19922 30.0584C5.58754 30.835 7.48868 32.7281 9.06623 33.173L12.9818 31.3608L13.006 31.3447C10.5952 32.453 6.51789 28.3433 6.44508 27.3887L5.19922 30.0584Z" fill="url(#paint3_linear_137_4738)"/>
<path opacity="0.75" d="M8.36305 33.4968L26.614 25.0347L13.573 11.9937L5.11088 30.2365C4.98953 30.5278 4.5284 31.7008 5.78235 32.8172C7.14146 34.0226 8.07181 33.6182 8.36305 33.4968Z" fill="url(#paint4_radial_137_4738)"/>
<path opacity="0.75" d="M8.36305 33.4968L26.614 25.0347L13.573 11.9937L5.11088 30.2365C4.98953 30.5278 4.5284 31.7008 5.78235 32.8172C7.14146 34.0226 8.07181 33.6182 8.36305 33.4968Z" fill="url(#paint5_radial_137_4738)"/>
<path d="M19.8104 12.058C19.5919 12.503 19.1632 12.5677 18.8477 12.4706L19.3654 11.4432C19.3654 11.4432 19.9479 11.5726 19.9641 11.1924L19.9883 11.7263L19.8104 12.058Z" fill="url(#paint6_linear_137_4738)"/>
<path d="M21.2579 6.39518C21.2579 6.39518 21.6301 6.22529 21.8647 5.7399C22.0993 5.2545 20.9424 4.34033 20.9424 4.34033L20.4004 5.28686C20.4004 5.28686 21.3146 5.88552 21.0314 6.08776C20.7402 6.29001 21.2579 6.39518 21.2579 6.39518Z" fill="url(#paint7_linear_137_4738)"/>
<path d="M30.7245 14.1777C30.8944 12.6892 29.8912 12.1957 29.5272 12.2361C29.5272 12.2361 29.4625 11.7508 30.1097 11.597C30.5384 11.5 31.6306 12.4708 31.3474 13.571L30.7245 14.1777Z" fill="url(#paint8_linear_137_4738)"/>
<path d="M26.7677 24.921C25.8616 25.8271 22.205 23.6267 18.5888 20.0185C14.9806 16.4104 12.7802 12.7456 13.6862 11.8396C14.5923 10.9335 18.249 13.134 21.8652 16.7421C25.4733 20.3583 27.6657 24.015 26.7677 24.921Z" fill="url(#paint9_linear_137_4738)"/>
<path d="M26.4605 24.3227C25.7729 25.0103 22.4883 22.8422 19.131 19.4768C15.7737 16.1113 13.5975 12.8349 14.2851 12.1473C14.9728 11.4596 18.2573 13.6277 21.6146 16.9931C24.972 20.3586 27.1482 23.635 26.4605 24.3227Z" fill="url(#paint10_linear_137_4738)"/>
<path d="M21.8569 5.74023C21.8569 5.74023 21.4362 6.63822 21.3795 6.7353C21.1692 7.09126 20.5786 7.21261 19.5189 7.06699C18.4591 6.92138 18.1516 6.978 18.1031 6.98609C18.0546 7.00227 17.4316 6.5007 17.4316 6.5007L17.4883 5.99102C17.4883 5.99102 17.6339 5.79686 18.1193 5.86158C18.9849 5.99102 21.5333 6.41979 21.8569 5.74023Z" fill="url(#paint11_linear_137_4738)"/>
<path d="M23.9605 20.7632C24.8099 19.7924 25.6028 20.5529 26.1043 19.8571L25.2468 18.9834C24.7452 19.671 24.0171 19.0239 23.1191 19.9704L23.9605 20.7632Z" fill="url(#paint12_linear_137_4738)"/>
<path d="M14.7461 8.98401C15.9191 9.67975 14.8755 10.6344 15.5389 11.1764L16.4531 10.3593C15.7897 9.81728 16.7443 8.87884 15.5713 8.18311L14.7461 8.98401Z" fill="url(#paint13_linear_137_4738)"/>
<path d="M27.1641 12.5839C27.1964 12.5758 27.2126 12.3817 27.6899 12.0419C28.1672 11.7021 29.2432 12.228 29.3807 12.3089C29.5264 12.3898 29.405 13.7246 29.405 13.7246C29.405 13.7246 28.0621 12.2927 27.3906 12.6244C26.7191 12.948 27.1641 12.5839 27.1641 12.5839Z" fill="url(#paint14_linear_137_4738)"/>
<path d="M27.3427 15.9094C27.3427 15.9094 27.2942 16.4353 27.0515 16.678C26.6147 17.1068 25.9189 16.4596 25.0371 16.6942C25.0371 16.6942 25.4416 15.6668 25.4821 15.5859C25.4821 15.5859 25.838 15.3674 26.2021 15.5778C26.5742 15.78 26.8978 15.8447 27.1243 15.7234C27.3508 15.602 27.3427 15.9094 27.3427 15.9094Z" fill="url(#paint15_linear_137_4738)"/>
<path d="M29.7136 13.5953C29.7136 13.5953 28.8479 13.9917 28.7347 14.0484C28.6214 14.105 28.3625 12.0906 28.9855 11.8884C29.6165 11.6861 30.0452 11.6133 30.11 11.6052C30.1747 11.589 29.0259 11.7104 29.7136 13.5953Z" fill="#FFBF00"/>
<path d="M27.0513 16.6697C27.4072 16.2976 27.8926 15.7475 27.8684 15.5938C27.7551 14.6068 26.9542 12.4306 27.6904 12.0342C27.6904 12.0342 27.0027 12.5196 26.7924 12.6652C26.5821 12.8108 26.4283 13.1991 26.4445 13.8382C26.485 14.9547 27.3749 16.3381 27.0513 16.6697Z" fill="#FFBF00"/>
<path d="M24.5912 8.68457C24.0006 12.8347 19.8828 16.7988 19.8828 16.7988L20.441 17.6483C20.441 17.6483 24.9229 12.9803 25.4972 8.81401L24.5912 8.68457Z" fill="url(#paint16_linear_137_4738)"/>
<path d="M16.9951 6.95315C16.898 7.13113 17.1812 7.43046 17.8607 8.25564C18.5403 9.08081 20.3039 11.2651 19.8023 12.0579L20.3444 10.9415C20.3444 10.9415 20.3525 10.0516 19.8185 9.18598C18.9772 7.82687 17.3673 6.36258 17.4886 5.99854L16.9951 6.95315Z" fill="url(#paint17_linear_137_4738)"/>
<path d="M20.6029 19.5812C20.7859 19.5812 20.9342 19.4329 20.9342 19.2498C20.9342 19.0668 20.7859 18.9185 20.6029 18.9185C20.4198 18.9185 20.2715 19.0668 20.2715 19.2498C20.2715 19.4329 20.4198 19.5812 20.6029 19.5812Z" fill="url(#paint18_linear_137_4738)"/>
<path d="M25.224 5.79557C25.407 5.79557 25.5553 5.64721 25.5553 5.46419C25.5553 5.28117 25.407 5.13281 25.224 5.13281C25.0409 5.13281 24.8926 5.28117 24.8926 5.46419C24.8926 5.64721 25.0409 5.79557 25.224 5.79557Z" fill="url(#paint19_linear_137_4738)"/>
<path d="M22.1068 10.6095C22.2898 10.6095 22.4381 10.4612 22.4381 10.2782C22.4381 10.0951 22.2898 9.94678 22.1068 9.94678C21.9238 9.94678 21.7754 10.0951 21.7754 10.2782C21.7754 10.4612 21.9238 10.6095 22.1068 10.6095Z" fill="url(#paint20_linear_137_4738)"/>
<path d="M24.0736 16.6852C24.2566 16.6852 24.4049 16.5369 24.4049 16.3538C24.4049 16.1708 24.2566 16.0225 24.0736 16.0225C23.8905 16.0225 23.7422 16.1708 23.7422 16.3538C23.7422 16.5369 23.8905 16.6852 24.0736 16.6852Z" fill="url(#paint21_linear_137_4738)"/>
<path d="M32.599 15.8761C32.782 15.8761 32.9303 15.7278 32.9303 15.5448C32.9303 15.3617 32.782 15.2134 32.599 15.2134C32.4159 15.2134 32.2676 15.3617 32.2676 15.5448C32.2676 15.7278 32.4159 15.8761 32.599 15.8761Z" fill="url(#paint22_linear_137_4738)"/>
<path d="M30.4876 22.8737C30.6706 22.8737 30.819 22.7253 30.819 22.5423C30.819 22.3593 30.6706 22.2109 30.4876 22.2109C30.3046 22.2109 30.1562 22.3593 30.1562 22.5423C30.1562 22.7253 30.3046 22.8737 30.4876 22.8737Z" fill="url(#paint23_linear_137_4738)"/>
<path d="M29.1048 18.6022C29.2878 18.6022 29.4362 18.4539 29.4362 18.2708C29.4362 18.0878 29.2878 17.9395 29.1048 17.9395C28.9218 17.9395 28.7734 18.0878 28.7734 18.2708C28.7734 18.4539 28.9218 18.6022 29.1048 18.6022Z" fill="url(#paint24_linear_137_4738)"/>
<path d="M30.9271 9.59C31.1101 9.59 31.2585 9.44164 31.2585 9.25862C31.2585 9.07561 31.1101 8.92725 30.9271 8.92725C30.7441 8.92725 30.5957 9.07561 30.5957 9.25862C30.5957 9.44164 30.7441 9.59 30.9271 9.59Z" fill="url(#paint25_linear_137_4738)"/>
<path d="M27.2044 10.674C27.3874 10.674 27.5358 10.5256 27.5358 10.3426C27.5358 10.1596 27.3874 10.0112 27.2044 10.0112C27.0214 10.0112 26.873 10.1596 26.873 10.3426C26.873 10.5256 27.0214 10.674 27.2044 10.674Z" fill="url(#paint26_linear_137_4738)"/>
<path d="M24.365 23.7803C27.7466 21.0054 33.4743 20.431 33.4743 20.431L33.6604 19.1528C33.6604 19.1528 26.881 19.9618 23.2891 23.0765C23.6774 23.3434 24.0333 23.578 24.365 23.7803Z" fill="url(#paint27_linear_137_4738)"/>
<path d="M15.877 15.7879C16.1035 16.0953 16.3543 16.4027 16.6212 16.7263C17.3412 15.1407 17.1875 13.8948 17.1875 13.8948L16.3057 13.3447C16.3947 14.3236 16.0954 15.2621 15.877 15.7879Z" fill="url(#paint28_linear_137_4738)"/>
<defs>
<linearGradient id="paint0_linear_137_4738" x1="4.03987" y1="14.5422" x2="18.4786" y2="31.6529" gradientUnits="userSpaceOnUse">
<stop offset="0.2544" stop-color="#FBE07A"/>
<stop offset="1" stop-color="#FF40BF"/>
</linearGradient>
<linearGradient id="paint1_linear_137_4738" x1="11.8861" y1="15.7946" x2="23.8682" y2="27.7767" gradientUnits="userSpaceOnUse">
<stop offset="0.2544" stop-color="#9F00E8"/>
<stop offset="1" stop-color="#7000A3"/>
</linearGradient>
<linearGradient id="paint2_linear_137_4738" x1="8.56431" y1="22.3177" x2="16.8743" y2="30.6277" gradientUnits="userSpaceOnUse">
<stop offset="0.2544" stop-color="#9F00E8"/>
<stop offset="1" stop-color="#7000A3"/>
</linearGradient>
<linearGradient id="paint3_linear_137_4738" x1="6.05295" y1="27.7696" x2="11.312" y2="33.0287" gradientUnits="userSpaceOnUse">
<stop offset="0.2544" stop-color="#9F00E8"/>
<stop offset="1" stop-color="#7000A3"/>
</linearGradient>
<radialGradient id="paint4_radial_137_4738" cx="0" cy="0" r="1" gradientUnits="userSpaceOnUse" gradientTransform="translate(11.8636 20.2675) rotate(119.598) scale(8.28891 2.53764)">
<stop stop-color="white" stop-opacity="0.5"/>
<stop offset="1" stop-color="white" stop-opacity="0"/>
</radialGradient>
<radialGradient id="paint5_radial_137_4738" cx="0" cy="0" r="1" gradientUnits="userSpaceOnUse" gradientTransform="translate(17.6884 27.6979) rotate(151.7) scale(13.1395 4.09807)">
<stop stop-color="#440063" stop-opacity="0.75"/>
<stop offset="1" stop-color="#420061" stop-opacity="0"/>
</radialGradient>
<linearGradient id="paint6_linear_137_4738" x1="19.8717" y1="11.7558" x2="21.8574" y2="11.1216" gradientUnits="userSpaceOnUse">
<stop stop-color="#BD2719"/>
<stop offset="1" stop-color="#FF4E0D"/>
</linearGradient>
<linearGradient id="paint7_linear_137_4738" x1="21.7174" y1="6.8288" x2="20.8283" y2="4.61996" gradientUnits="userSpaceOnUse">
<stop stop-color="#BD2719"/>
<stop offset="1" stop-color="#FF4E0D"/>
</linearGradient>
<linearGradient id="paint8_linear_137_4738" x1="31.6074" y1="13.575" x2="28.2958" y2="11.453" gradientUnits="userSpaceOnUse">
<stop stop-color="#FFCB4B"/>
<stop offset="1" stop-color="#E81CA2"/>
</linearGradient>
<linearGradient id="paint9_linear_137_4738" x1="23.1219" y1="9.24717" x2="15.7227" y2="32.5752" gradientUnits="userSpaceOnUse">
<stop offset="0.2544" stop-color="#FBE07A"/>
<stop offset="1" stop-color="#E81CA2"/>
</linearGradient>
<linearGradient id="paint10_linear_137_4738" x1="25.5513" y1="14.6024" x2="14.1956" y2="22.5668" gradientUnits="userSpaceOnUse">
<stop stop-color="#FBE07A"/>
<stop offset="1" stop-color="white"/>
</linearGradient>
<linearGradient id="paint11_linear_137_4738" x1="16.4103" y1="6.50793" x2="20.0778" y2="6.45237" gradientUnits="userSpaceOnUse">
<stop stop-color="#BD2719"/>
<stop offset="1" stop-color="#FF4E0D"/>
</linearGradient>
<linearGradient id="paint12_linear_137_4738" x1="25.0439" y1="19.1555" x2="24.1619" y2="20.7379" gradientUnits="userSpaceOnUse">
<stop stop-color="#FF9214"/>
<stop offset="1" stop-color="#FF4E0D"/>
</linearGradient>
<linearGradient id="paint13_linear_137_4738" x1="14.7409" y1="6.99081" x2="16.0745" y2="10.8065" gradientUnits="userSpaceOnUse">
<stop stop-color="#80DAFE"/>
<stop offset="1" stop-color="#008EE6"/>
</linearGradient>
<linearGradient id="paint14_linear_137_4738" x1="28.3694" y1="14.4054" x2="28.0641" y2="10.5563" gradientUnits="userSpaceOnUse">
<stop stop-color="#FFCB4B"/>
<stop offset="1" stop-color="#E81CA2"/>
</linearGradient>
<linearGradient id="paint15_linear_137_4738" x1="25.1374" y1="16.0283" x2="27.2642" y2="16.3728" gradientUnits="userSpaceOnUse">
<stop stop-color="#FFCB4B"/>
<stop offset="1" stop-color="#E81CA2"/>
</linearGradient>
<linearGradient id="paint16_linear_137_4738" x1="23.6748" y1="8.83391" x2="20.5199" y2="21.8177" gradientUnits="userSpaceOnUse">
<stop offset="0.2544" stop-color="#E100FF"/>
<stop offset="1" stop-color="#7000A3"/>
</linearGradient>
<linearGradient id="paint17_linear_137_4738" x1="17.4701" y1="6.70625" x2="19.8039" y2="10.596" gradientUnits="userSpaceOnUse">
<stop stop-color="#FF9214"/>
<stop offset="1" stop-color="#FF4E0D"/>
</linearGradient>
<linearGradient id="paint18_linear_137_4738" x1="19.969" y1="17.3847" x2="21.2274" y2="21.0858" gradientUnits="userSpaceOnUse">
<stop stop-color="#FFCB4B"/>
<stop offset="1" stop-color="#E81CA2"/>
</linearGradient>
<linearGradient id="paint19_linear_137_4738" x1="24.213" y1="3.80682" x2="26.2856" y2="7.21184" gradientUnits="userSpaceOnUse">
<stop stop-color="#FBE07A"/>
<stop offset="1" stop-color="#E81CA2"/>
</linearGradient>
<linearGradient id="paint20_linear_137_4738" x1="22.0573" y1="10.0948" x2="22.5755" y2="12.0563" gradientUnits="userSpaceOnUse">
<stop stop-color="#80DAFE"/>
<stop offset="1" stop-color="#008EE6"/>
</linearGradient>
<linearGradient id="paint21_linear_137_4738" x1="23.8502" y1="15.7246" x2="24.1665" y2="16.6294" gradientUnits="userSpaceOnUse">
<stop stop-color="#80DAFE"/>
<stop offset="1" stop-color="#008EE6"/>
</linearGradient>
<linearGradient id="paint22_linear_137_4738" x1="32.8393" y1="14.7712" x2="32.2472" y2="16.6587" gradientUnits="userSpaceOnUse">
<stop stop-color="#FFCB4B"/>
<stop offset="1" stop-color="#E81CA2"/>
</linearGradient>
<linearGradient id="paint23_linear_137_4738" x1="30.39" y1="20.425" x2="30.575" y2="24.4592" gradientUnits="userSpaceOnUse">
<stop stop-color="#FFCB4B"/>
<stop offset="1" stop-color="#E81CA2"/>
</linearGradient>
<linearGradient id="paint24_linear_137_4738" x1="28.8877" y1="17.6446" x2="29.204" y2="18.5494" gradientUnits="userSpaceOnUse">
<stop offset="0.2544" stop-color="#9F00E8"/>
<stop offset="1" stop-color="#7000A3"/>
</linearGradient>
<linearGradient id="paint25_linear_137_4738" x1="31.5704" y1="8.15433" x2="30.3491" y2="10.264" gradientUnits="userSpaceOnUse">
<stop stop-color="#80DAFE"/>
<stop offset="1" stop-color="#008EE6"/>
</linearGradient>
<linearGradient id="paint26_linear_137_4738" x1="27.1189" y1="9.87241" x2="27.5261" y2="12.1301" gradientUnits="userSpaceOnUse">
<stop stop-color="#FF9214"/>
<stop offset="1" stop-color="#FF4E0D"/>
</linearGradient>
<linearGradient id="paint27_linear_137_4738" x1="20.9965" y1="21.2989" x2="32.8078" y2="21.5416" gradientUnits="userSpaceOnUse">
<stop stop-color="#80DAFE"/>
<stop offset="1" stop-color="#008EE6"/>
</linearGradient>
<linearGradient id="paint28_linear_137_4738" x1="14.4698" y1="19.9857" x2="17.3013" y2="12.9475" gradientUnits="userSpaceOnUse">
<stop stop-color="#FBE07A"/>
<stop offset="1" stop-color="#E81CA2"/>
</linearGradient>
</defs>
</svg>
